<svg xmlns="http://www.w3.org/2000/svg" viewBox="0 0 212 212" width="212" height="212">
  <style>
    .ink { fill: #1a1a1a; }
    .paper { fill: #ffffff; }
    .num { fill: #1a1a1a; font: 600 10px "Libre Franklin", "Helvetica Neue", Arial, sans-serif; }
    @media (prefers-color-scheme: dark) {
      .ink { fill: #857e72; }
      .paper { fill: #24221e; }
      .num { fill: #ede9e0; }
    }
  </style>
  <rect class="ink" width="212" height="212"/>
  <rect class="paper" x="44" y="2" width="40" height="40"/>
  <text class="num" x="47" y="13">1</text>
  <rect class="paper" x="86" y="2" width="40" height="40"/>
  <text class="num" x="89" y="13">2</text>
  <rect class="paper" x="128" y="2" width="40" height="40"/>
  <text class="num" x="131" y="13">3</text>
  <rect class="paper" x="170" y="2" width="40" height="40"/>
  <text class="num" x="173" y="13">4</text>
  <rect class="paper" x="2" y="44" width="40" height="40"/>
  <text class="num" x="5" y="55">5</text>
  <rect class="paper" x="44" y="44" width="40" height="40"/>
  <rect class="paper" x="86" y="44" width="40" height="40"/>
  <rect class="paper" x="128" y="44" width="40" height="40"/>
  <rect class="paper" x="170" y="44" width="40" height="40"/>
  <rect class="paper" x="2" y="86" width="40" height="40"/>
  <text class="num" x="5" y="97">6</text>
  <rect class="paper" x="44" y="86" width="40" height="40"/>
  <rect class="paper" x="86" y="86" width="40" height="40"/>
  <rect class="paper" x="128" y="86" width="40" height="40"/>
  <rect class="paper" x="170" y="86" width="40" height="40"/>
  <rect class="paper" x="2" y="128" width="40" height="40"/>
  <text class="num" x="5" y="139">7</text>
  <rect class="paper" x="44" y="128" width="40" height="40"/>
  <rect class="paper" x="86" y="128" width="40" height="40"/>
  <rect class="paper" x="128" y="128" width="40" height="40"/>
  <rect class="paper" x="170" y="128" width="40" height="40"/>
  <rect class="paper" x="2" y="170" width="40" height="40"/>
  <text class="num" x="5" y="181">8</text>
  <rect class="paper" x="44" y="170" width="40" height="40"/>
  <rect class="paper" x="86" y="170" width="40" height="40"/>
  <rect class="paper" x="128" y="170" width="40" height="40"/>
</svg>
